REM MD5 4867cb3e5fdbd174301530e4d5767391
FILE "Tokyo Shadow (Japan) (Disc 3).bin" BINARY
  TRACK 01 MODE2/2352
    INDEX 01 00:00:00
  TRACK 02 AUDIO
    INDEX 00 23:07:30
    INDEX 01 23:09:30
  TRACK 03 AUDIO
    INDEX 00 24:15:52
    INDEX 01 24:17:52
  TRACK 04 AUDIO
    INDEX 00 26:01:71
    INDEX 01 26:03:71
REM LEADOUT 32:07:64
